<svg xmlns="http://www.w3.org/2000/svg" xmlns:xlink="http://www.w3.org/1999/xlink" viewBox="0 0 30 30"><defs><style>.cls-1,.cls-2,.cls-5{fill:none;}.cls-2,.cls-5{stroke:#fff;stroke-linejoin:round;stroke-width:0.5px;}.cls-3{fill:#fff;}.cls-4{clip-path:url(#clip-path);}.cls-5{stroke-linecap:round;}</style><clipPath id="clip-path"><path class="cls-1" d="M30,15.1A15,15,0,0,1,9.25,28.87,14.93,14.93,0,1,1,30,15.1Z"/></clipPath></defs><title>blackpanther</title><g id="Black_Panther" data-name="Black Panther"><path d="M15,29.75A14.74,14.74,0,0,1,.25,15.1a14.75,14.75,0,0,1,29.5,0A14.71,14.71,0,0,1,15,29.75Z"/><path d="M15,.7a14.39,14.39,0,0,1,5.62,27.68,14.63,14.63,0,0,1-11.18,0A14.39,14.39,0,0,1,15,.7m0-.5A14.89,14.89,0,0,0,9.25,28.87,15,15,0,0,0,30,15.1,15,15,0,0,0,15,.2Z"/><polygon points="3.94 3.14 4.02 3.18 3.93 3.27 3.94 3.14"/><polygon points="2.14 0.12 1.55 8.77 7.37 2.51 2.14 0.12 2.14 0.12"/><polygon points="26.27 3.2 26.33 3.17 26.33 3.27 26.27 3.2"/><polygon points="28.19 0.12 22.97 2.51 28.58 8.77 28.19 0.12 28.19 0.12"/><path class="cls-2" d="M11.4.2c-1.25,2.62-1.87,5.34-.79,7.67a7.49,7.49,0,0,0,3.21,3.19L14.48,15"/><path class="cls-3" d="M15.15,4.16A.21.21,0,0,1,14.94,4L14.67.21c0-.12.36-.21.48-.21s.43.09.43.21L15.36,4A.21.21,0,0,1,15.15,4.16Z"/><g class="cls-4"><path class="cls-2" d="M10.48.42C9.78,1.45,8.55,2,8.38,3a32.11,32.11,0,0,0-.25,4.21c.58,2.27,4.93,5.56,4.93,5.56L13.29,15l-.69.67"/><path class="cls-3" d="M7.59,28.77a13.84,13.84,0,0,1,0-1.79,11.19,11.19,0,0,0-.41-3.77C4.65,21.78.39,18.06-.84,15l.56-.22C.86,17.62,5,21.06,7.62,22.46c.07,0,.41.22.45.32a15.25,15.25,0,0,1,.87,4.44v1.85Z"/><path class="cls-3" d="M12.78,16.2a.91.91,0,0,0-.44-1.13,36,36,0,0,0-3.52-1.72c-.42-.08-1.08-.54-1.65-.33s-1.06.21-1.16.8a3.06,3.06,0,0,0,.66,1.91c.36.52.46.89,1.3,1.06s1.34.31,2.11.47a2.22,2.22,0,0,0,1.3,0A2.83,2.83,0,0,0,12.78,16.2Z"/><path class="cls-5" d="M10.71,17.12a16.23,16.23,0,0,1,2.73,3.39c.08,1.17.08,2.19.08,2.19"/><path class="cls-2" d="M19.4.21c1.25,2.62,1.86,5.34.79,7.67A7.49,7.49,0,0,1,17,11.07L16.31,15"/><path class="cls-2" d="M20.32.43c.7,1,1.93,1.61,2.1,2.6a33.94,33.94,0,0,1,.25,4.21c-.58,2.27-4.93,5.56-4.93,5.56L17.51,15l.69.67"/><path class="cls-3" d="M18,16.21a.9.9,0,0,1,.44-1.13A36,36,0,0,1,22,13.36c.41-.08,1.07-.54,1.65-.33s1.06.21,1.16.8a3.12,3.12,0,0,1-.66,1.91c-.36.52-.46.89-1.31,1.06s-1.33.31-2.1.47a2.22,2.22,0,0,1-1.3,0A2.83,2.83,0,0,1,18,16.21Z"/><path class="cls-5" d="M20.09,17.13c-.39.44-2.39,2.1-2.92,3.34-.08,1.17-.06,2.23-.06,2.23"/><line class="cls-5" x1="12.83" y1="19.46" x2="17.75" y2="19.46"/><path class="cls-3" d="M22.34,28.77a13.84,13.84,0,0,0,0-1.79,11.45,11.45,0,0,1,.41-3.77c2.57-1.43,6.83-5.15,8.06-8.2l-.56-.22c-1.14,2.83-5.32,6.27-7.9,7.67-.07,0-.41.22-.44.32A15,15,0,0,0,21,27.22v1.85Z"/></g><path d="M15,.7a14.39,14.39,0,0,1,5.62,27.68,14.63,14.63,0,0,1-11.18,0A14.39,14.39,0,0,1,15,.7m0-.5A14.89,14.89,0,0,0,9.25,28.87,15,15,0,0,0,30,15.1,15,15,0,0,0,15,.2Z"/></g></svg>