<svg xmlns="http://www.w3.org/2000/svg" xmlns:xlink="http://www.w3.org/1999/xlink" viewBox="0 0 30 30"><defs><style>.cls-1{fill:none;}.cls-2{fill:#d41d00;}.cls-3{fill:#342e7c;}.cls-4{fill:#e9c500;}.cls-5{clip-path:url(#clip-path);}</style><clipPath id="clip-path"><path class="cls-1" d="M30,15A15,15,0,1,1,15,0,15,15,0,0,1,30,15Z"/></clipPath></defs><title>captainmarvel</title><g id="Cap_Marvel" data-name="Cap Marvel"><path class="cls-2" d="M29.24,10.28a2.41,2.41,0,0,0-.08-.25,14.47,14.47,0,0,0-.61-1.46,15,15,0,0,0-27.1,0A15.69,15.69,0,0,0,.84,10c0,.08,0,.17-.08.25A13.71,13.71,0,0,0,.34,11.8L9,14.73,11.85,14l.48-.12.29-.07L11.52,12l-.66-1.1,3,1.77L15,8l1.18,4.64,3-1.77L18.49,12l-1.11,1.87.29.07.48.12,2.83.72,8.68-2.92A13.3,13.3,0,0,0,29.24,10.28Z"/><path class="cls-3" d="M30,15A15,15,0,1,1,0,15a15.3,15.3,0,0,1,.34-3.2L9,14.73,8,15l4.64,1.19-1.77,3,3-1.77L15,22l1.18-4.64,3,1.76-1.77-3L22,15l-1-.26,8.68-2.92A15.21,15.21,0,0,1,30,15Z"/><polygon class="cls-4" points="17.38 16.18 19.15 19.14 16.18 17.38 15 22.02 13.82 17.38 10.85 19.15 12.62 16.18 7.98 14.99 12.62 13.82 10.86 10.85 13.82 12.62 15 7.98 16.18 12.62 19.15 10.85 17.38 13.82 22.02 14.99 17.38 16.18"/><polygon points="15 7.98 13.82 12.62 10.86 10.85 12.62 13.82 7.98 14.99 12.62 16.18 10.85 19.15 13.82 17.38 15 22.02 16.18 17.38 19.15 19.14 17.38 16.18 22.02 14.99 17.38 13.82 19.15 10.85 16.18 12.62 15 7.98 15 7.98"/><g class="cls-5"><rect class="cls-4" x="3.96" y="-0.93" width="1.35" height="23.08" transform="translate(-6.9 11.63) rotate(-71.41)"/><path d="M-5.93,6.61l21.41,7.2-.27.81L-6.2,7.41l.14-.4.13-.4M-6.24,6l-.3.87-.29.88,22.35,7.52.59-1.75L-6.24,6Z"/><rect class="cls-4" x="3.38" y="0.45" width="1.6" height="23.08" transform="translate(-8.52 12.12) rotate(-71.4)"/><path d="M-6.35,7.87l21.4,7.2-.35,1L-6.7,8.91l.17-.52.18-.52m-.32-.63-.33,1-.33,1L15,16.74l.67-2L-6.67,7.24Z"/><rect class="cls-4" x="13.87" y="9.93" width="23.08" height="1.66" transform="translate(-2.1 8.67) rotate(-18.6)"/><path d="M35.93,6.61l.19.55.18.55-21.4,7.2-.37-1.1,21.4-7.2M36.25,6,13.9,13.5l.68,2L36.94,8l-.35-1-.34-1Z"/><rect class="cls-4" x="14.31" y="11.3" width="23.08" height="1.49" transform="translate(-2.49 8.87) rotate(-18.6)"/><path d="M36.39,8l.16.47.16.47L15.3,16.11,15,15.17,36.39,8m.32-.63L14.35,14.86,15,16.74,37.34,9.22,37,8.28l-.31-.94Z"/></g><path d="M15,.5A14.51,14.51,0,1,1,.5,15,14.51,14.51,0,0,1,15,.5M15,0A15,15,0,1,0,30,15,15,15,0,0,0,15,0Z"/><polygon class="cls-4" points="13.75 17.46 10.76 19.24 12.54 16.25 7.63 14.99 12.54 13.75 10.77 10.75 13.75 12.54 15 7.63 16.25 12.54 19.24 10.76 17.46 13.75 22.38 14.99 17.46 16.25 19.25 19.23 16.25 17.46 15 22.38 13.75 17.46"/><path d="M15,8.64l.92,3.64.17.64.57-.34,1.86-1.1-1.1,1.85-.34.58.65.16,3.63.92-3.63.93-.65.17.34.57,1.11,1.86-1.87-1.11-.57-.34-.16.65L15,21.36l-.92-3.64-.17-.64-.57.34-1.86,1.1,1.1-1.86.34-.57-.64-.17L8.64,15l3.64-.92.65-.16-.35-.58-1.1-1.86,1.86,1.11.57.34.17-.65L15,8.64m0-2-1.41,5.54L10.05,10l2.1,3.56L6.61,15l5.54,1.42L10,20l3.55-2.11L15,23.39l1.41-5.55L20,20l-2.12-3.54L23.39,15l-5.54-1.4L20,10l-3.55,2.11L15,6.61Z"/></g></svg>