<svg xmlns="http://www.w3.org/2000/svg" viewBox="0 0 30 30"><defs><style>.cls-1{fill:#d41d00;}.cls-2,.cls-4{fill:#e9c500;}.cls-3{fill:none;}.cls-3,.cls-4,.cls-5{stroke:#000;stroke-width:0.5px;}.cls-3,.cls-5{stroke-linecap:round;stroke-linejoin:round;}.cls-4{stroke-miterlimit:10;}.cls-5{fill:#73d4ff;}</style></defs><title>ironman</title><g id="Iron_Man" data-name="Iron Man"><path class="cls-1" d="M15,29.75a14.74,14.74,0,1,1,5.72-1.15A14.71,14.71,0,0,1,15,29.75Z"/><path d="M15,.5A14.51,14.51,0,1,1,.5,15,14.51,14.51,0,0,1,15,.5M15,0A15,15,0,1,0,30,15,15,15,0,0,0,15,0Z"/><path class="cls-2" d="M15,29.75a15,15,0,0,1-3.35-.38,14.3,14.3,0,0,1-2.19-.7c-.32-1.1-.62-2.4-.85-3.59V25l0-.05c-.72-.86-4.45-5.08-5.35-6C5,12.4,4.86,8.75,4.81,7.5A45.07,45.07,0,0,1,9.9,5.65c.46,1,.88,2.08,1.24,3s.69,1.67.91,2.14l.06.15h5.78l.69-1.63C19,8.24,19.5,7,20.1,5.65A45.07,45.07,0,0,1,25.19,7.5c-.05,1.25-.2,4.9,1.6,11.42-.9,1-4.63,5.18-5.35,6l0,.05v.07c-.22,1.19-.53,2.49-.85,3.59a14.3,14.3,0,0,1-2.19.7A15,15,0,0,1,15,29.75Z"/><path d="M20.24,6a47.39,47.39,0,0,1,4.7,1.7,35.56,35.56,0,0,0,1.57,11.2C25.46,20,21.94,24,21.25,24.8l-.08.1,0,.13c-.21,1.14-.5,2.38-.8,3.46a16.75,16.75,0,0,1-2.05.64,14.81,14.81,0,0,1-6.58,0,16.75,16.75,0,0,1-2.05-.64c-.3-1.08-.59-2.32-.8-3.46l0-.13-.08-.1C8.06,24,4.54,20,3.49,18.85A35.56,35.56,0,0,0,5.06,7.65,47.39,47.39,0,0,1,9.76,6c.42,1,.81,1.92,1.15,2.75s.69,1.67.91,2.16l.13.29h6.11l.13-.31.61-1.46c.41-1,.88-2.12,1.44-3.43M20,5.35c-1,2.21-1.67,4-2.23,5.3H12.27c-.44-1-1.27-3.09-2.23-5.3a41.28,41.28,0,0,0-5.49,2c0,1.09.29,4.76-1.62,11.63.69.71,4.69,5.22,5.43,6.13.23,1.22.56,2.6.89,3.74a15.33,15.33,0,0,0,2.35.75,15,15,0,0,0,6.8,0,15.33,15.33,0,0,0,2.35-.75c.33-1.14.66-2.52.89-3.74.74-.91,4.74-5.42,5.43-6.13C25.16,12.12,25.4,8.45,25.45,7.36a41.28,41.28,0,0,0-5.49-2Z"/><polyline class="cls-3" points="11.45 29.42 12.3 27.54 17.5 27.54 18.37 29.54"/><path class="cls-4" d="M4.05,15.09c7.93,2.3,13.79,2.3,21.9,0"/><path class="cls-5" d="M6.68,15.86c2.05.2,5.28.75,6.48.91a3.53,3.53,0,0,1-1.45,1.61,12.47,12.47,0,0,1-3.61,0C7.25,18.12,6.64,16.54,6.68,15.86Z"/><path class="cls-5" d="M23.56,15.86c-2,.2-5.28.73-6.48.88a3.57,3.57,0,0,0,1.45,1.64,12.47,12.47,0,0,0,3.61,0C23,18.12,23.6,16.54,23.56,15.86Z"/></g></svg>