<svg xmlns="http://www.w3.org/2000/svg" viewBox="0 0 30 30"><defs><style>.cls-1{fill:#ffd2aa;}.cls-2,.cls-5{fill:#fec51e;}.cls-3{fill:#306a54;}.cls-4{fill:#a08338;}.cls-5,.cls-8{stroke:#000;stroke-miterlimit:10;stroke-width:0.5px;}.cls-5{stroke-linecap:round;}.cls-6{fill:#fff;}.cls-7{fill:#00e906;}.cls-8{fill:#682b2a;}</style></defs><title>loki</title><g id="Magneto"><path d="M4.37,25.21c-.18.32-.41,1.42-1.61,1.41A2.4,2.4,0,0,1,1.2,26a5.76,5.76,0,0,0,.58,1.41,3.51,3.51,0,0,0,3,1.19c1.29-.13,2.13-.34,2.65-1.33S4.69,24.67,4.37,25.21Z"/><path d="M25.78,25.21c.19.32.42,1.42,1.62,1.41A2.37,2.37,0,0,0,29,26a5.39,5.39,0,0,1-.58,1.41,3.48,3.48,0,0,1-2.95,1.19c-1.29-.13-2.13-.34-2.66-1.33S25.47,24.67,25.78,25.21Z"/><path class="cls-1" d="M15,29.75A14.75,14.75,0,1,1,29.74,15,14.7,14.7,0,0,1,15,29.75Z"/><path d="M15,.5A14.5,14.5,0,1,1,.5,15,14.51,14.51,0,0,1,15,.5h0M15,0h0A15,15,0,0,0,6.36,27.27h0A15,15,0,1,0,15,0Z"/><path class="cls-1" d="M15,29.75a14.59,14.59,0,0,1-5.16-.93,14.93,14.93,0,0,1-3.33-1.75,15.32,15.32,0,0,1-2-1.69c-.2-.2-.39-.4-.58-.62A14.76,14.76,0,0,1,2.85,6.66L15.06,9.94,27.12,6.6A14.68,14.68,0,0,1,29.74,15a14.83,14.83,0,0,1-9.53,13.8A14.66,14.66,0,0,1,15,29.75Z"/><path d="M27,6.89A14.5,14.5,0,0,1,9.93,28.59a14.3,14.3,0,0,1-3.28-1.73A15.33,15.33,0,0,1,4.7,25.21c-.2-.2-.39-.4-.57-.61A14.51,14.51,0,0,1,3,6.94l12,3.22.13,0,.13,0L27,6.89m.21-.58L15.06,9.68,2.75,6.37a15,15,0,0,0,1,18.56c.19.21.39.43.6.63a14.89,14.89,0,0,0,2,1.71h0a15,15,0,0,0,20.85-21Z"/><path class="cls-2" d="M9.46,28.68a14.67,14.67,0,0,1-2.94-1.6,14.84,14.84,0,0,1-2-1.7c-.2-.2-.39-.4-.58-.62A14.76,14.76,0,0,1,2.85,6.66L15.06,9.94,27.12,6.6A14.67,14.67,0,0,1,29.75,15,14.83,14.83,0,0,1,20.6,28.66l.86-6.91,3.67-3V12.5L15.05,15.2,4.92,12.5v6.23l3.67,3Z"/><path d="M27,6.89A14.38,14.38,0,0,1,29.5,15a14.57,14.57,0,0,1-8.6,13.25l.8-6.38L25.2,19l.18-.15V12.17l-.63.17-9.7,2.6L5.3,12.34l-.63-.17v6.68l.18.15,3.51,2.88.79,6.4A14.5,14.5,0,0,1,4.7,25.21c-.2-.2-.39-.4-.57-.61A14.51,14.51,0,0,1,3,6.94l12,3.22.13,0,.13,0L27,6.89m.21-.58h0L15.06,9.68,2.75,6.37a15,15,0,0,0,1,18.56c.19.21.39.43.6.63a15.82,15.82,0,0,0,2,1.72h0a15.16,15.16,0,0,0,3.38,1.79h0l-.92-7.44-3.66-3V12.82l9.89,2.64,9.82-2.64v5.79l-3.66,3L20.3,29v0A15,15,0,0,0,27.22,6.31Z"/><polygon class="cls-2" points="14.56 15.07 13.54 9.52 15.05 9.94 16.57 9.52 15.55 15.07 15.05 15.2 14.56 15.07"/><path d="M16.25,9.87l-.92,5-.27.07-.28-.07-.92-5,1.06.29.14,0,.13,0,1.06-.29m.64-.7-1.83.51-1.84-.51,1.13,6.1.71.19.71-.19,1.12-6.1Z"/><polygon class="cls-3" points="13.99 14.93 11.8 9.08 13.26 9.47 14.28 15.01 13.99 14.93"/><path d="M12.21,9.45l.84.22.73,4L12.21,9.45m-.81-.74,2.4,6.43.8.22L13.48,9.27,11.4,8.71Z"/><polygon class="cls-3" points="16.84 9.44 18.3 9.05 16.12 14.9 15.82 14.98 16.84 9.44"/><path d="M17.89,9.42l-1.57,4.23.73-4,.84-.22m.81-.74-2.08.56L15.5,15.32l.81-.21L18.7,8.68Z"/><path d="M3.15,6.22a14.74,14.74,0,0,1,23.66,0L15.05,9.42Z"/><path d="M15,.5A14.5,14.5,0,0,1,26.38,6L15.05,9.16,3.58,6.07A14.46,14.46,0,0,1,15,.5h0M15,0h0A15,15,0,0,0,3.75,24.93a15,15,0,0,1-1-18.56L15.06,9.68,27.22,6.31A15,15,0,0,0,15,0Z"/><path class="cls-4" d="M20.87,11.89c-.55,0-1-.19-1-.46-.12-.62.57-1.59,1.17-2.45a7.66,7.66,0,0,0,1.06-1.76c.48-1.44.38-2.66-.26-3.35A2.74,2.74,0,0,0,19.93,3a2,2,0,0,0-1.3.47,3,3,0,0,0-.75.88,3.13,3.13,0,0,1-.12-1.91A3.28,3.28,0,0,1,21,.58a4.51,4.51,0,0,1,2.42.72,4.85,4.85,0,0,1,2.71,4.93,5.54,5.54,0,0,1-2,4.18,5,5,0,0,1-2.29,1.34A3.36,3.36,0,0,1,20.87,11.89Z"/><path d="M21,.83h0a4.32,4.32,0,0,1,2.29.68c2.54,1.56,2.56,3,2.59,4.72a5.3,5.3,0,0,1-1.92,4,4.79,4.79,0,0,1-2.21,1.29,2.8,2.8,0,0,1-.83.13c-.51,0-.76-.17-.78-.26-.09-.52.59-1.48,1.14-2.25A7.89,7.89,0,0,0,22.31,7.3c.51-1.53.4-2.84-.31-3.6a3,3,0,0,0-2.07-.94,2.33,2.33,0,0,0-1.46.52,3.89,3.89,0,0,0-.5.49,2.53,2.53,0,0,1,0-1.25A3,3,0,0,1,21,.83m0-.5a3.52,3.52,0,0,0-3.43,2,4,4,0,0,0,.39,2.73,2.12,2.12,0,0,1,.88-1.43,1.78,1.78,0,0,1,1.14-.41,2.43,2.43,0,0,1,1.7.78,3.18,3.18,0,0,1,.21,3.1c-.41,1.24-2.46,3.13-2.24,4.33.08.4.57.67,1.27.67a3.6,3.6,0,0,0,1-.15,5.25,5.25,0,0,0,2.38-1.39,5.73,5.73,0,0,0,2.1-4.38A5.11,5.11,0,0,0,23.5,1.08,4.84,4.84,0,0,0,21,.33Zm-3,4.77c0,.17,0,.29.1.32h0s0-.12-.11-.32Z"/><path class="cls-2" d="M20.22,13.08a1.62,1.62,0,0,1-.41,0c-.7-.33-1.41-.66-.93-3l1-.83L21.49,7.8a4.27,4.27,0,0,0,.86,1.67l0,.06.08,0a3,3,0,0,0,1,.17,4.48,4.48,0,0,0,1.79-.41,12.25,12.25,0,0,1-1.76,2.79A8.6,8.6,0,0,1,20.22,13.08Z"/><path d="M21.37,8.24a4.61,4.61,0,0,0,.79,1.39l.09.11.14.06a3.2,3.2,0,0,0,1.09.18,4.3,4.3,0,0,0,1.26-.2,10,10,0,0,1-1.36,2.12,8.32,8.32,0,0,1-3.17.93,1.42,1.42,0,0,1-.3,0c-.68-.32-1.2-.61-.8-2.6L20,9.42l1.35-1.18m.24-.93c-.12.21-2.11,1.89-3,2.64-.55,2.56.3,3,1.1,3.34a2.25,2.25,0,0,0,.46,0,8.7,8.7,0,0,0,3.44-1,14.55,14.55,0,0,0,2.18-3.6,4.36,4.36,0,0,1-2.35.76,2.73,2.73,0,0,1-.92-.15,4.46,4.46,0,0,1-.95-2Z"/><path class="cls-5" d="M22.47,9.46c-.27.41-1.93,3.56-2.58,3.74"/><path class="cls-4" d="M9.2,11.89a3.29,3.29,0,0,1-.9-.14A5.05,5.05,0,0,1,6,10.41,5.54,5.54,0,0,1,4,6.23,4.83,4.83,0,0,1,6.7,1.3,4.51,4.51,0,0,1,9.12.58a3.31,3.31,0,0,1,3.2,1.87,3.2,3.2,0,0,1-.13,1.91,2.69,2.69,0,0,0-.75-.88A2,2,0,0,0,10.14,3a2.73,2.73,0,0,0-1.88.86c-.65.69-.74,1.91-.26,3.35A7.58,7.58,0,0,0,9.05,9c.6.86,1.29,1.83,1.17,2.45-.05.27-.47.46-1,.46Z"/><path d="M9.12.83a3.05,3.05,0,0,1,3,1.69,2.53,2.53,0,0,1,0,1.25,3.33,3.33,0,0,0-.5-.49,2.3,2.3,0,0,0-1.45-.52,3,3,0,0,0-2.08.94c-.71.76-.82,2.07-.31,3.6A8.27,8.27,0,0,0,8.84,9.13c.55.77,1.23,1.73,1.14,2.25,0,.09-.27.26-.78.26a2.8,2.8,0,0,1-.83-.13,4.76,4.76,0,0,1-2.2-1.29,5.32,5.32,0,0,1-1.93-4c0-1.69,0-3.16,2.59-4.72A4.32,4.32,0,0,1,9.12.83m0-.5a4.84,4.84,0,0,0-2.55.75A5.12,5.12,0,0,0,3.74,6.22a5.76,5.76,0,0,0,2.1,4.38A5.3,5.3,0,0,0,8.22,12a3.66,3.66,0,0,0,1,.15c.7,0,1.2-.27,1.27-.67.22-1.2-1.82-3.09-2.24-4.33A3.18,3.18,0,0,1,8.44,4a2.43,2.43,0,0,1,1.71-.78,1.82,1.82,0,0,1,1.14.41,2.13,2.13,0,0,1,.87,1.43,4.07,4.07,0,0,0,.4-2.73,3.55,3.55,0,0,0-3.44-2Zm3,4.77c-.09.2-.15.32-.11.32h0c.07,0,.11-.15.1-.32Z"/><path class="cls-2" d="M9.86,13.08a8.65,8.65,0,0,1-3.3-1A12.25,12.25,0,0,1,4.8,9.32a4.52,4.52,0,0,0,1.79.41,2.93,2.93,0,0,0,1-.17l.07,0,0,0A4.47,4.47,0,0,0,8.59,7.8c.3.27.81.73,1.64,1.45l1,.83c.48,2.3-.23,2.63-1,3l-.35,0Z"/><path d="M8.7,8.24l1.35,1.18.92.79c.39,2-.13,2.28-.81,2.6a1.42,1.42,0,0,1-.3,0,8.38,8.38,0,0,1-3.17-.93A10,10,0,0,1,5.33,9.78a4.3,4.3,0,0,0,1.26.2,3.3,3.3,0,0,0,1.1-.18l.14-.06.09-.12A4.23,4.23,0,0,0,8.7,8.24m-.24-.93a4.57,4.57,0,0,1-.94,2,2.83,2.83,0,0,1-.93.15,4.39,4.39,0,0,1-2.35-.76,14.55,14.55,0,0,0,2.18,3.6,8.8,8.8,0,0,0,3.44,1,2.19,2.19,0,0,0,.46,0c.8-.38,1.65-.78,1.1-3.34-.84-.75-2.83-2.43-3-2.64Z"/><path class="cls-5" d="M7.61,9.46c.26.41,1.92,3.56,2.57,3.74"/><path class="cls-6" d="M11.12,19.21A3,3,0,0,1,8.5,17.83a4.69,4.69,0,0,1,1.4-.22,3.89,3.89,0,0,1,2.74,1.11,2.22,2.22,0,0,1-1.52.49Z"/><path d="M9.9,17.86a3.7,3.7,0,0,1,2.35.84,2.28,2.28,0,0,1-1.13.26A2.88,2.88,0,0,1,8.9,18a4.47,4.47,0,0,1,1-.12m0-.5a5.63,5.63,0,0,0-1.75.31,3.13,3.13,0,0,0,3,1.79A2.27,2.27,0,0,0,13,18.71,4.17,4.17,0,0,0,9.9,17.36Z"/><path class="cls-7" d="M10.68,18.89a.47.47,0,1,1,.47-.47A.47.47,0,0,1,10.68,18.89Z"/><path d="M10.68,18.2a.22.22,0,0,1,0,.44.22.22,0,0,1,0-.44m0-.5a.72.72,0,1,0,.72.72.72.72,0,0,0-.72-.72Z"/><path d="M13.68,17.17c.25.11,0,.81-.29.89s-2-.94-3.29-1.45S8.25,15.72,8,15.69s-.54-.67-.26-.61S13.34,17,13.68,17.17Z"/><path class="cls-6" d="M18.87,19.31a2.29,2.29,0,0,1-1.52-.49,3.91,3.91,0,0,1,2.74-1.11,5,5,0,0,1,1.4.21A3,3,0,0,1,18.87,19.31Z"/><path d="M20.09,18h0a4.4,4.4,0,0,1,1,.12,2.87,2.87,0,0,1-2.22,1,2.32,2.32,0,0,1-1.12-.26A3.61,3.61,0,0,1,20.09,18m0-.5A4.17,4.17,0,0,0,17,18.81a2.27,2.27,0,0,0,1.86.75,3.13,3.13,0,0,0,3-1.79,5.35,5.35,0,0,0-1.75-.31Z"/><path class="cls-7" d="M19.31,19a.47.47,0,1,1,.47-.47A.47.47,0,0,1,19.31,19Z"/><path d="M19.31,18.3a.22.22,0,1,1-.22.22.22.22,0,0,1,.22-.22m0-.5a.72.72,0,1,0,.72.72.72.72,0,0,0-.72-.72Z"/><path d="M16.31,17.27c-.25.11,0,.81.29.89s2-.94,3.29-1.45,1.85-.89,2.14-.92.55-.67.26-.62S16.65,17.11,16.31,17.27Z"/><line class="cls-8" x1="12.27" y1="24.64" x2="17.72" y2="24.64"/></g></svg>