<svg xmlns="http://www.w3.org/2000/svg" viewBox="0 0 30 30"><defs><style>.cls-1,.cls-6{fill:#682b2a;}.cls-2{fill:#ffd2aa;}.cls-3{fill:#3f3f3f;}.cls-4{fill:#fff;}.cls-4,.cls-6{stroke:#000;stroke-miterlimit:10;stroke-width:0.5px;}.cls-5{fill:#d3414c;}</style></defs><title>magneto</title><g id="Magneto"><path class="cls-1" d="M14.9,29.75a14.68,14.68,0,0,1-4.37-.69l-.67-.23a14.75,14.75,0,1,1,10.08.07l-.67.22a14.62,14.62,0,0,1-4.27.63Z"/><path d="M15,.5a14.51,14.51,0,0,1,4.86,28.17c-.22.07-.44.15-.66.21a14.53,14.53,0,0,1-4.2.62h-.1a14.52,14.52,0,0,1-4.29-.68L10,28.6a14.88,14.88,0,0,1-3.3-1.74A14.5,14.5,0,0,1,15,.5h0M15,0h0A15,15,0,0,0,6.36,27.27h0a15,15,0,0,0,3.41,1.8l.68.23a15.11,15.11,0,0,0,4.44.7H15a14.79,14.79,0,0,0,4.34-.64l.68-.22A15,15,0,0,0,15,0Z"/><path class="cls-2" d="M19,29.13a14.79,14.79,0,0,1-4.34.64h-.1a15.11,15.11,0,0,1-4.44-.7c0-3.62.11-9.33.12-11.62h8.64C18.89,19.75,19,25.51,19,29.13Z"/><path class="cls-3" d="M26,13.1c-.95,1.79-3.89,4.41-7.12,4v.3H10.24v-.3c-3.22.36-6.17-2.26-7.12-4A6.16,6.16,0,0,1,6,8.77c1.57-.76,6.34.69,8.57,2.69,2.23-2,7-3.45,8.57-2.69A6.16,6.16,0,0,1,26,13.1Z"/><path class="cls-4" d="M12.4,14c-.69-.67-3.16-2.18-4.32-1.71s-1.9,1.19-.58,1.81S12.4,14.68,12.4,14Z"/><path class="cls-4" d="M16.3,14c.69-.67,3.16-2.18,4.33-1.71s1.9,1.19.57,1.81S16.3,14.68,16.3,14Z"/><path class="cls-5" d="M19.25,28.78c0-3.47-.11-9.1-.12-11.36h.36a8.42,8.42,0,0,0,6.73-4.22l0-.07v-.08a6.38,6.38,0,0,0-3-4.52A3,3,0,0,0,22,8.32a13.72,13.72,0,0,0-7.41,2.8,13.72,13.72,0,0,0-7.41-2.8,3,3,0,0,0-1.26.22,6.37,6.37,0,0,0-3,4.52v.08l0,.07a8.42,8.42,0,0,0,6.74,4.22H10c0,2.34-.08,8.37-.12,11.29l-1.09-.46c0-4.14.08-7.91.08-9.74v-.29l-.29,0a4.82,4.82,0,0,1-.65,0c-3.65,0-5.83-4.07-6.46-5.43.29-2,1.5-4.72,3.22-5.7A5.34,5.34,0,0,1,7.16,6.7c2.35,0,5.49.82,7.22,2.66l.18.19.18-.19C16.47,7.52,19.61,6.7,22,6.7a5.37,5.37,0,0,1,2.48.47c1.72,1,2.93,3.65,3.22,5.7-1.21,2.64-3.56,5.43-6.54,5.43h0a4.82,4.82,0,0,1-.65,0l-.28,0v.29c0,1.06,0,2.79,0,4.87,0,1.53,0,3.25.06,5Z"/><path d="M22,7a5.22,5.22,0,0,1,2.35.43c1.64.93,2.8,3.47,3.09,5.45-1.19,2.55-3.44,5.22-6.28,5.22a4.4,4.4,0,0,1-.62,0l-.56-.07v.57c0,1,0,2.76,0,4.8,0,1.5.05,3.18.06,4.91l-.07,0-.48.18c0-3.36-.1-8.43-.1-10.75h.1c3.19,0,6-2.54,7-4.35l.07-.15,0-.16a6.65,6.65,0,0,0-3.16-4.7A3.12,3.12,0,0,0,22,8.06a14.09,14.09,0,0,0-7.41,2.74A14.09,14.09,0,0,0,7.15,8.06a3.16,3.16,0,0,0-1.37.26A6.65,6.65,0,0,0,2.62,13l0,.16.08.15c1,1.81,3.76,4.35,7,4.35h.1c0,2.29-.07,7.31-.11,10.65l-.29-.12L9,28.08c.05-4.35.08-7.81.08-9.57v-.57L8.54,18a4.4,4.4,0,0,1-.62,0c-3.44,0-5.55-3.84-6.2-5.22.29-2,1.46-4.52,3.09-5.45A5.22,5.22,0,0,1,7.16,7c2.29,0,5.36.8,7,2.58l.36.38.36-.38C16.6,7.75,19.67,7,22,7m0-.5c-2.42,0-5.61.84-7.4,2.74-1.79-1.9-5-2.74-7.4-2.74a5.53,5.53,0,0,0-2.6.5c-1.9,1.08-3.1,4-3.36,6,1.05,2.31,3.34,5.65,6.72,5.65a5.53,5.53,0,0,0,.69,0c0,1.85,0,5.7-.08,9.9.23.09,1.36.59,1.59.66.05-3.8.12-9.88.12-11.92-.2,0-.41,0-.6,0-3,0-5.63-2.41-6.52-4.08A6.16,6.16,0,0,1,6,8.77a2.73,2.73,0,0,1,1.16-.21,13.32,13.32,0,0,1,7.41,2.9A13.35,13.35,0,0,1,22,8.56a2.73,2.73,0,0,1,1.16.21A6.16,6.16,0,0,1,26,13.1c-.89,1.67-3.53,4.08-6.51,4.08l-.61,0c0,2.05.08,8.19.12,12,.23-.07,1.32-.48,1.55-.56,0-4.23-.11-8.2-.11-10.06a5.27,5.27,0,0,0,.68,0c3.39,0,5.75-3.34,6.8-5.65-.26-2-1.45-4.87-3.36-5.95a5.5,5.5,0,0,0-2.6-.5Z"/><path d="M15,.5a14.51,14.51,0,0,1,4.86,28.17c-.22.07-.44.15-.66.21a14.53,14.53,0,0,1-4.2.62h-.1a14.52,14.52,0,0,1-4.29-.68L10,28.6a14.88,14.88,0,0,1-3.3-1.74A14.5,14.5,0,0,1,15,.5h0M15,0h0A15,15,0,0,0,6.36,27.27h0a15,15,0,0,0,3.41,1.8l.68.23a15.11,15.11,0,0,0,4.44.7H15a14.79,14.79,0,0,0,4.34-.64l.68-.22A15,15,0,0,0,15,0Z"/><line class="cls-6" x1="11.96" y1="22.79" x2="17.4" y2="22.79"/></g></svg>