<svg xmlns="http://www.w3.org/2000/svg" xmlns:xlink="http://www.w3.org/1999/xlink" viewBox="0 0 30 30"><defs><style>.cls-1,.cls-4{fill:none;}.cls-2{fill:#d41d00;}.cls-3{clip-path:url(#clip-path);}.cls-4{stroke:#000;stroke-miterlimit:10;stroke-width:0.5px;}.cls-5{fill:#fff;}</style><clipPath id="clip-path"><circle class="cls-1" cx="15" cy="15" r="15"/></clipPath></defs><title>spiderman</title><g id="Spider-Man"><circle class="cls-2" cx="15" cy="15" r="14.75"/><path d="M15,.5A14.5,14.5,0,1,1,.5,15,14.51,14.51,0,0,1,15,.5M15,0A15,15,0,1,0,30,15,15,15,0,0,0,15,0Z"/><g class="cls-3"><path class="cls-4" d="M15.12,8.77A4.86,4.86,0,0,1,9.9,10.62c.75,1.46.41,4.25-1.47,5.22a4.17,4.17,0,0,1,1.87,4.82c2.11.34,3.32-.09,4.82,2.1"/><path class="cls-4" d="M15.12,8.77a4.86,4.86,0,0,0,5.22,1.85c-.75,1.46-.41,4.25,1.47,5.22a4.17,4.17,0,0,0-1.87,4.82c-2.11.34-3.32-.09-4.82,2.1"/><path class="cls-4" d="M15.12,3.47C14,6,10,8.26,6.68,7.4a6.43,6.43,0,0,1-2.42,8.44c3.09,1.41,3,5.05,2.65,8.2,3.31-.31,5.48-.34,8.21,3"/><path class="cls-4" d="M15.12,3.47C16.2,6,20.29,8.26,23.56,7.4A6.43,6.43,0,0,0,26,15.84c-3.09,1.41-3,5.05-2.65,8.2-3.31-.31-5.48-.34-8.21,3"/><line class="cls-4" x1="15.12" y1="-2.98" x2="15.12" y2="33.63"/><line class="cls-4" x1="1.81" y1="2.53" x2="28.43" y2="29.14"/><line class="cls-4" x1="28.43" y1="2.53" x2="1.81" y2="29.14"/><line class="cls-4" x1="-3.7" y1="15.84" x2="33.94" y2="15.84"/><path class="cls-4" d="M2.76,3.47C5.7,7.62,5.33,14-1,15.76,3,17.38,5.25,22,3.26,27.7c4.07-.89,9-.12,11.86,3.75V-1.69C13.46,4.05,7.44,6.32,2.76,3.47Z"/><path class="cls-4" d="M31.22,15.76C24.91,14,24.87,6.92,27.48,3.47c-4,2.58-10.7.58-12.36-5.16V31.45C18,27.58,22.91,26.81,27,27.7,25,22,27.22,17.38,31.22,15.76Z"/></g><path class="cls-5" d="M21.11,18.05a5.1,5.1,0,0,1-3.88-2.12,102,102,0,0,0,8.2-7.31c.48,2.42.62,6.55-1.42,8.28A4.48,4.48,0,0,1,21.11,18.05Z"/><path d="M25.09,9.66c.3,2.3.21,5.49-1.41,6.86a4,4,0,0,1-2.57,1A4.4,4.4,0,0,1,18,16c1.95-1.55,4.83-4.08,7.14-6.34m.62-2a93.38,93.38,0,0,1-9.18,8.21,5.75,5.75,0,0,0,4.58,2.72,4.91,4.91,0,0,0,3.22-1.27c2.54-2.15,2-7.45,1.38-9.66Z"/><path class="cls-5" d="M9.26,18.05A4.45,4.45,0,0,1,6.37,16.9C4.33,15.17,4.47,11,5,8.62a102,102,0,0,0,8.2,7.31A5.11,5.11,0,0,1,9.26,18.05Z"/><path d="M5.29,9.66c2.3,2.26,5.19,4.79,7.14,6.34a4.4,4.4,0,0,1-3.17,1.55,4,4,0,0,1-2.57-1C5.08,15.15,5,12,5.29,9.66m-.62-2c-.62,2.21-1.16,7.51,1.38,9.66a4.91,4.91,0,0,0,3.21,1.27,5.75,5.75,0,0,0,4.58-2.72A94.51,94.51,0,0,1,4.67,7.62Z"/></g></svg>