<svg xmlns="http://www.w3.org/2000/svg" viewBox="0 0 30 30"><defs><style>.cls-1,.cls-6{fill:#9e76ff;}.cls-2{fill:#d41100;}.cls-3{fill:#3b54b9;}.cls-4{fill:#f8b91c;}.cls-5{fill:#fff;stroke-miterlimit:10;stroke-width:0.5px;}.cls-5,.cls-6,.cls-7{stroke:#000;}.cls-6,.cls-7{stroke-linecap:round;stroke-linejoin:round;stroke-width:0.25px;}.cls-7{fill:none;}</style></defs><title>thanos</title><g id="Thanos"><path class="cls-1" d="M15,29.75A14.75,14.75,0,1,1,29.73,15,14.67,14.67,0,0,1,15,29.75Z"/><path d="M15,.5A14.5,14.5,0,1,1,.5,15,14.51,14.51,0,0,1,15,.5h0M15,0h0A15,15,0,0,0,6.36,27.27h0A15,15,0,1,0,15,0Z"/><path d="M17.61,16.51c.49.3,1.41,0,2-.09s1.57-.45,2-.54.69-.68.76-1-.11-.37-.28-.38-4.14.43-4.36.45-.24.71-.2.94S17.44,16.4,17.61,16.51Z"/><circle class="cls-2" cx="19.68" cy="15.58" r="0.62"/><path d="M12.53,16.51c-.49.3-1.41,0-2-.09S9,16,8.58,15.88s-.69-.68-.75-1,.11-.37.28-.38,4.14.43,4.36.45.24.71.2.94S12.7,16.4,12.53,16.51Z"/><circle class="cls-2" cx="10.46" cy="15.58" r="0.62"/><path class="cls-3" d="M6.14,26.79A14.75,14.75,0,1,1,29.75,15a14.64,14.64,0,0,1-5.48,11.48V15.12c.46-.42,1.76-1.67,2.24-2.22l.15-.17-.16-.17a19.6,19.6,0,0,1-1.42-1.83c-.31-.44-.61-.86-.87-1.18l-.14-.18-.19.13c-1.44,1-3.58,2.3-5.47,3.44-1.22.73-2.38,1.43-3.21,2-.83-.54-2-1.24-3.21-2C10.1,11.8,8,10.51,6.53,9.5l-.19-.13-.15.18c-.26.32-.55.74-.87,1.18A18,18,0,0,1,3.9,12.56l-.15.17.15.17c.48.55,1.77,1.8,2.24,2.22Z"/><path d="M15,.51A14.51,14.51,0,0,1,24.52,26V15.23c.53-.48,1.71-1.62,2.18-2.17l.29-.34-.31-.33a21,21,0,0,1-1.4-1.81c-.31-.44-.61-.86-.87-1.18L24.11,9l-.38.27c-1.43,1-3.57,2.29-5.45,3.43-1.16.69-2.26,1.35-3.08,1.88-.82-.53-1.92-1.19-3.07-1.88-1.89-1.14-4-2.43-5.46-3.43L6.29,9,6,9.4c-.27.32-.56.74-.88,1.18a17.65,17.65,0,0,1-1.4,1.81l-.31.33.3.34c.47.55,1.65,1.69,2.18,2.17V26.28A14.5,14.5,0,0,1,15,.51h0M15,0h0A15,15,0,0,0,6.38,27.28h0V15c-.37-.32-1.8-1.69-2.3-2.27.75-.8,1.65-2.23,2.3-3,2.41,1.7,6.75,4.14,8.81,5.5,2.07-1.36,6.4-3.8,8.82-5.5.64.8,1.55,2.23,2.3,3-.5.58-1.93,1.95-2.3,2.27V27A15,15,0,0,0,15,0Z"/><path class="cls-4" d="M15,14.75,12.43,13.2C10.1,11.78,6.9,9.82,6.53,9.51l-.19-.15-.16.18c-.18.21-.55.74-1,1.35s-1.07,1.53-1.39,1.92c-.26-.3-.51-.65-.76-1l-.29-.41A34.3,34.3,0,0,1,5.43,7.63c.41-.53.77-1,1-1.34a65.24,65.24,0,0,1,8.51,7v.16C15,13.77,15,14.32,15,14.75Z"/><path d="M6.51,6.62a67.25,67.25,0,0,1,8.19,6.77v.07c0,.21,0,.53,0,.85L12.58,13C10.37,11.65,7,9.62,6.69,9.32L6.31,9,6,9.38c-.19.22-.56.75-1,1.37S4.15,12,3.81,12.41c-.18-.23-.37-.5-.55-.75l-.2-.29c.36-.68,1.78-2.54,2.58-3.59.33-.44.64-.84.87-1.16M6.37,6c-.82,1.15-3.72,4.75-3.88,5.47a16.23,16.23,0,0,0,1.33,1.74c.43-.38,2.13-3,2.55-3.47.62.51,8.26,5.1,8.83,5.5,0-.55,0-1.82,0-2-1-1.35-7.9-6.88-8.83-7.25Z"/><path class="cls-4" d="M15.44,14.75c0-.43,0-1,0-1.29V13.3a65.91,65.91,0,0,1,8.51-7c.25.34.62.83,1,1.37a37.22,37.22,0,0,1,2.65,3.74l-.29.4a11.57,11.57,0,0,1-.76,1c-.33-.4-.94-1.26-1.4-1.93s-.8-1.13-1-1.33l-.16-.19-.19.16c-.37.3-3.57,2.26-5.91,3.68Z"/><path d="M23.89,6.62c.24.33.56.74.9,1.19a43.64,43.64,0,0,1,2.57,3.56c-.07.09-.13.19-.2.29-.18.25-.37.52-.56.75-.34-.44-.83-1.15-1.2-1.67s-.8-1.14-1-1.36L24.1,9l-.38.31c-.36.3-3.69,2.33-5.89,3.68l-2.14,1.31c0-.32,0-.64,0-.85v-.07a67.25,67.25,0,0,1,8.19-6.77M24,6c-.94.37-7.87,5.9-8.84,7.25,0,.18,0,1.44,0,2,.57-.4,8.22-5,8.84-5.5.42.49,2.12,3.09,2.56,3.47a17.65,17.65,0,0,0,1.33-1.74C27.76,10.72,24.85,7.12,24,6Z"/><path class="cls-5" d="M9.52,21.75c-1.29,0,4.93-.5,5.45-.53A3.38,3.38,0,0,0,16.12,21a18.86,18.86,0,0,1,2.53-.6,2,2,0,0,0,.83-.28c.16-.05.36-.08.6.28s.5.55.55.82.11.31-.24.2a16.93,16.93,0,0,0-4.16.52c-.44.25-1.7-.05-2.09,0a25.37,25.37,0,0,1-2.77.1C11,22,9.88,21.75,9.52,21.75Z"/><polygon class="cls-4" points="14.21 15.1 13.85 0.25 16.14 0.25 15.72 15.1 14.21 15.1"/><path d="M15.89.5l-.41,14.35h-1L14.11.5h1.78M16.4,0H13.6L14,15.35h2L16.4,0Z"/><path class="cls-6" d="M11.16,29c-2.53-.34-3.44-.53-3.52-.93a7.6,7.6,0,0,1,.14-2.83"/><path class="cls-6" d="M14.79,29.8c-2.56,0-3.28,0-3.63-.46s-.18-3.79.07-4.46"/><path class="cls-6" d="M18.43,29c2.52-.34,3.44-.53,3.52-.93a10.35,10.35,0,0,0,0-3.29"/><path class="cls-6" d="M14.79,29.62c2.57,0,3.28.18,3.64-.28s0-4.46-.21-5.13"/><path class="cls-6" d="M13.61,29.79c1.09.2,1.43.26,1.61-.47a10.48,10.48,0,0,0,.15-2.39"/><path class="cls-7" d="M20.39,21.42c1,.16.89.62,1.1,1.25"/><path class="cls-7" d="M12.37,22.05c-.32,0-.91,0-1.06,1.13"/><path class="cls-7" d="M9.84,21.58a1.63,1.63,0,0,0-1.63,1"/><path class="cls-7" d="M13.05,22c1.07,0,1.72,0,2,1.17"/><path class="cls-7" d="M15,22c1.07,0,1.86,0,2.48,1.1"/><path class="cls-7" d="M6.22,13.92c1.29.66,6.88,1.28,7.25,1.19"/><path class="cls-7" d="M23.89,13.92c-1.29.66-6.88,1.28-7.25,1.19"/></g></svg>